<svg xmlns="http://www.w3.org/2000/svg" width="192" height="192"><path fill="none" d="M0 0h192v192H0z"/><path fill="#00832D" d="M108 96l17.06 19.5L148 130.16l4-34.03-4-33.28-23.38 12.88z"/><path fill="#0066DA" d="M9 127v29c0 6.63 5.37 12 12 12h29l6-21.92L50 127l-19.9-6L9 127z"/><path fill="#E94235" d="M50 24L9 65l21.1 6L50 65l5.9-18.83z"/><path fill="#2684FC" d="M9 65h41v62H9z"/><path fill="#00AC47" d="M174.19 41.36L148 62.85v67.31l26.3 21.57c3.94 3.08 9.7.27 9.7-4.73V46c0-5.07-5.89-7.85-9.81-4.64zM108 96v31H50v41h86c6.63 0 12-5.37 12-12v-25.84L108 96z"/><path fill="#FFBA00" d="M136 24H50v41h58v31l40-33.15V36c0-6.63-5.37-12-12-12z"/></svg>